<svg xmlns="http://www.w3.org/2000/svg" viewBox="0 0 160 160" role="img" aria-labelledby="title desc">
  <title id="title">Science</title>
  <desc id="desc">Flask icon for science course</desc>
  <defs>
    <linearGradient id="bg" x1="0" y1="0" x2="1" y2="1">
      <stop offset="0%" stop-color="#0f172a"/>
      <stop offset="100%" stop-color="#1e293b"/>
    </linearGradient>
    <linearGradient id="liquid" x1="0" y1="0" x2="1" y2="1">
      <stop offset="0%" stop-color="#34d399"/>
      <stop offset="100%" stop-color="#10b981"/>
    </linearGradient>
  </defs>
  <rect width="160" height="160" rx="28" fill="url(#bg)"/>
  <path d="M62 26h36v14l-12 18v18l28 40c6 9 0 20-11 20H57c-11 0-17-11-11-20l28-40V58L62 40z" fill="#0b1220" stroke="#34d399" stroke-width="4"/>
  <path d="M60 111h40c5 0 7 6 4 10l-2 3H58l-2-3c-3-4-1-10 4-10z" fill="url(#liquid)"/>
  <circle cx="72" cy="100" r="4" fill="#6ee7b7"/>
  <circle cx="90" cy="95" r="3" fill="#6ee7b7"/>
</svg>
