<svg xmlns="http://www.w3.org/2000/svg" viewBox="0 0 160 160" role="img" aria-labelledby="title desc">
  <title id="title">Technology</title>
  <desc id="desc">Chip icon for technology course</desc>
  <defs>
    <linearGradient id="bg" x1="0" y1="0" x2="1" y2="1">
      <stop offset="0%" stop-color="#0f172a"/>
      <stop offset="100%" stop-color="#1e293b"/>
    </linearGradient>
  </defs>
  <rect width="160" height="160" rx="28" fill="url(#bg)"/>
  <rect x="42" y="42" width="76" height="76" rx="12" fill="#0b1220" stroke="#60a5fa" stroke-width="4"/>
  <rect x="62" y="62" width="36" height="36" rx="6" fill="#1d4ed8"/>
  <g stroke="#93c5fd" stroke-width="4" stroke-linecap="round">
    <line x1="52" y1="30" x2="52" y2="42"/>
    <line x1="68" y1="30" x2="68" y2="42"/>
    <line x1="84" y1="30" x2="84" y2="42"/>
    <line x1="100" y1="30" x2="100" y2="42"/>
    <line x1="52" y1="118" x2="52" y2="130"/>
    <line x1="68" y1="118" x2="68" y2="130"/>
    <line x1="84" y1="118" x2="84" y2="130"/>
    <line x1="100" y1="118" x2="100" y2="130"/>
    <line x1="30" y1="52" x2="42" y2="52"/>
    <line x1="30" y1="68" x2="42" y2="68"/>
    <line x1="30" y1="84" x2="42" y2="84"/>
    <line x1="30" y1="100" x2="42" y2="100"/>
    <line x1="118" y1="52" x2="130" y2="52"/>
    <line x1="118" y1="68" x2="130" y2="68"/>
    <line x1="118" y1="84" x2="130" y2="84"/>
    <line x1="118" y1="100" x2="130" y2="100"/>
  </g>
</svg>
